# File produced by Open Asset Import Library (http://www.assimp.sf.net)
# (assimp v3.1.193236683)

mtllib M6_TILEABLE_GRID_TEST_1_V1_170719_JB.mtl

# 102 vertex positions
v  -302.664 50.2582 387.089
v  -337.173 29.7699 387.089
v  -27.6856 29.7699 387.089
v  -27.6856 50.2582 387.089
v  -302.664 50.2582 -469.039
v  -302.664 50.2582 -288.088
v  -27.6856 50.2582 -288.088
v  -27.6856 50.2582 -469.039
v  -337.173 29.7699 -469.039
v  -27.6856 29.7699 -469.039
v  247.293 50.2582 -469.039
v  247.293 50.2582 -288.088
v  281.802 29.7699 -288.088
v  281.802 29.7699 -469.039
v  -337.173 29.7699 -288.088
v  -302.664 23.8677 102.232
v  -302.664 23.8677 -29.1885
v  -336.249 29.7699 -29.1885
v  -337.173 29.7699 102.232
v  -27.6856 23.8677 102.232
v  -27.6856 23.8677 -29.1885
v  247.293 23.8677 -29.1885
v  247.293 23.8677 102.232
v  281.802 29.7699 102.232
v  280.878 29.7699 -29.1885
v  247.293 50.2582 387.089
v  281.802 29.7699 387.089
v  -302.664 23.8677 -247.651
v  -302.664 32.009 -265.623
v  -337.173 29.7699 -265.623
v  -337.173 29.7699 -247.651
v  -27.6856 23.8677 -247.651
v  -27.6856 32.009 -265.623
v  247.293 23.8677 -247.651
v  247.293 32.009 -265.623
v  281.802 29.7699 -247.651
v  281.802 29.7699 -265.623
v  -302.664 50.2582 206.137
v  -302.664 32.009 183.673
v  -337.173 29.7699 183.673
v  -337.173 29.7699 206.137
v  -27.6856 50.2582 206.137
v  -27.6856 32.009 183.673
v  247.293 50.2582 206.137
v  247.293 32.009 183.673
v  281.802 29.7699 206.137
v  281.802 29.7699 183.673
v  -302.664 23.8677 -52.7618
v  -302.664 23.8677 -184.182
v  -337.173 29.7699 -184.182
v  -336.249 29.7699 -52.7618
v  -27.6856 23.8677 -52.7618
v  -27.6856 23.8677 -184.182
v  247.293 23.8677 -52.7618
v  247.293 23.8677 -184.182
v  280.878 29.7699 -52.7618
v  281.802 29.7699 -184.182
v  -302.664 23.8677 165.701
v  -337.173 29.7699 165.701
v  -27.6856 23.8677 165.701
v  247.293 23.8677 165.701
v  281.802 29.7699 165.701
v  -27.6856 12.4157 387.089
v  -346.672 12.4158 387.089
v  -346.672 12.4158 -469.039
v  -27.6856 12.4157 -469.039
v  -346.672 12.4158 -288.088
v  291.3 12.4157 -469.039
v  291.3 12.4158 -288.088
v  -346.672 12.4158 102.232
v  -346.672 12.4158 -29.1885
v  291.301 12.4158 102.232
v  291.301 12.4158 -29.1885
v  291.3 12.4157 387.089
v  -346.672 12.4158 -247.651
v  -346.672 12.4158 -265.623
v  291.3 12.4158 -265.623
v  291.301 12.4158 -247.651
v  -346.672 12.4158 206.137
v  -346.672 12.4158 183.673
v  291.3 12.4158 183.673
v  291.3 12.4158 206.137
v  -346.672 12.4158 -184.182
v  -346.672 12.4158 -52.7618
v  291.301 12.4158 -184.182
v  291.301 12.4158 -52.7618
v  -346.672 12.4158 165.701
v  291.301 12.4158 165.701
v  -260.707 50.0306 -37.0068
v  -260.707 50.0306 -44.9435
v  -303.503 50.0305 -44.9435
v  -303.503 50.0305 -37.0068
v  -323.979 50.0302 -44.9435
v  -323.979 50.0302 -37.0068
v  -27.6856 50.0306 -37.0068
v  -27.6856 50.0306 -44.9435
v  205.336 50.0306 -37.0068
v  205.336 50.0306 -44.9435
v  248.131 50.0305 -37.0068
v  248.131 50.0305 -44.9435
v  268.607 50.0302 -37.0068
v  268.607 50.0302 -44.9435

# 110 UV coordinates
vt 0.127211 0.13434 0
vt 0.11169 0.0737909 0
vt 0.253084 0.0617189 0
vt 0.255212 0.119766 0
vt 0.134637 0.871016 0
vt 0.154651 0.747348 0
vt 0.262397 0.757024 0
vt 0.26286 0.877269 0
vt 0.121784 0.931718 0
vt 0.263064 0.936063 0
vt 0.391075 0.869834 0
vt 0.368763 0.747251 0
vt 0.415419 0.710048 0
vt 0.452494 0.843815 0
vt 0.0727654 0.846669 0
vt 0.107543 0.713404 0
vt 0.136728 0.372055 0
vt 0.148192 0.46154 0
vt 0.136891 0.485056 0
vt 0.115806 0.37629 0
vt 0.259035 0.355986 0
vt 0.261195 0.431328 0
vt 0.371268 0.46238 0
vt 0.383493 0.368195 0
vt 0.4037 0.37269 0
vt 0.383386 0.484944 0
vt 0.383474 0.12537 0
vt 0.394781 0.0638613 0
vt 0.404315 0.930555 0
vt 0.138344 0.675442 0
vt 0.133262 0.701321 0
vt 0.113131 0.695184 0
vt 0.115855 0.680108 0
vt 0.261784 0.682777 0
vt 0.262041 0.70599 0
vt 0.384977 0.672489 0
vt 0.390091 0.697591 0
vt 0.406596 0.676101 0
vt 0.409649 0.691438 0
vt 0.15157 0.250257 0
vt 0.130637 0.301489 0
vt 0.111183 0.308083 0
vt 0.105398 0.289678 0
vt 0.257442 0.244186 0
vt 0.258298 0.294374 0
vt 0.364976 0.251278 0
vt 0.386785 0.297277 0
vt 0.412311 0.284714 0
vt 0.406888 0.303181 0
vt 0.0661748 0.159759 0
vt 0.445859 0.150132 0
vt 0.149335 0.536934 0
vt 0.136928 0.630773 0
vt 0.116698 0.626143 0
vt 0.137248 0.51435 0
vt 0.259483 0.568322 0
vt 0.261493 0.643882 0
vt 0.372499 0.537896 0
vt 0.384035 0.627399 0
vt 0.383778 0.514314 0
vt 0.405002 0.623152 0
vt 0.135784 0.32683 0
vt 0.114242 0.323345 0
vt 0.258624 0.317345 0
vt 0.381875 0.323341 0
vt 0.404283 0.318415 0
vt 0.251293 0.0111623 0
vt 0.105071 0.0229782 0
vt 0.117466 0.982691 0
vt 0.26324 0.986775 0
vt 0.0583003 0.697258 0
vt 0.0233736 0.830059 0
vt 0.501309 0.826029 0
vt 0.464459 0.693752 0
vt 0.0692529 0.388461 0
vt 0.0853666 0.490741 0
vt 0.450461 0.383144 0
vt 0.435445 0.489646 0
vt 0.397839 0.012709 0
vt 0.408977 0.98152 0
vt 0.0646242 0.666212 0
vt 0.0620644 0.680058 0
vt 0.460527 0.676731 0
vt 0.45789 0.663054 0
vt 0.0564284 0.306585 0
vt 0.0603921 0.323289 0
vt 0.457948 0.317991 0
vt 0.461583 0.30064 0
vt 0.0177696 0.177995 0
vt 0.495411 0.166788 0
vt 0.0699502 0.615424 0
vt 0.0851522 0.509431 0
vt 0.45157 0.610953 0
vt 0.435269 0.508386 0
vt 0.0630555 0.336756 0
vt 0.455506 0.331969 0
vt 0.187434 0.496927 0
vt 0.187242 0.50144 0
vt 0.170871 0.501766 0
vt 0.170753 0.496767 0
vt 0.165809 0.500506 0
vt 0.166266 0.498203 0
vt 0.2604 0.49737 0
vt 0.260265 0.502234 0
vt 0.333406 0.498048 0
vt 0.333221 0.502566 0
vt 0.349768 0.497685 0
vt 0.349894 0.50268 0
vt 0.354837 0.49893 0
vt 0.35438 0.501234 0

# 132 vertex normals
vn 0 0 1
vn 0 1 0
vn 0 0 -1
vn 0.510509 0.859872 0
vn 0.662798 0.748799 -1.83859e-07
vn 0.652 0.758219 -1.49475e-07
vn -0.51051 0.859872 0
vn -0.651999 0.75822 -8.39679e-08
vn -0.662797 0.748799 -1.61521e-07
vn 0.170075 0.985431 0.000403229
vn 0.170805 0.985305 0.000600534
vn 0.170074 0.985431 0.000402996
vn -0.170805 0.985305 0.000600532
vn -0.170075 0.985431 0.000403228
vn -0.170074 0.985431 0.000402994
vn 0.00306864 0.915748 0.401742
vn 0.00184534 0.844148 0.536107
vn 0.0516929 0.973991 0.220611
vn 0 0.910894 0.412639
vn 0 0.837432 0.546541
vn -0.00306865 0.915748 0.401742
vn -0.00184534 0.844148 0.536107
vn -0.0516928 0.973991 0.220611
vn -0.29181 0.886167 -0.359938
vn -0.29181 0.886167 -0.359938
vn -0.29181 0.886167 -0.359938
vn 0.00184534 0.844148 -0.536107
vn 0 0.776172 -0.630521
vn 0 0.837432 -0.546541
vn -0.00184534 0.844148 -0.536107
vn 0.291809 0.886167 -0.359938
vn 0.291809 0.886167 -0.359938
vn 0.291809 0.886167 -0.359938
vn 0.291809 0.886167 -0.359938
vn -0.29181 0.886167 0.359937
vn -0.29181 0.886167 0.359937
vn -0.29181 0.886167 0.359937
vn -0.29181 0.886167 0.359937
vn 0 0.776172 0.630521
vn 0.29181 0.886167 0.359938
vn 0.29181 0.886167 0.359938
vn 0.29181 0.886167 0.359938
vn 0.29181 0.886167 0.359938
vn -0.510509 0.859872 0
vn -0.662797 0.748799 2.01615e-07
vn -0.651999 0.75822 8.39679e-08
vn 0.510509 0.859872 0
vn 0.651999 0.75822 1.49475e-07
vn 0.662798 0.748799 1.83859e-07
vn 0.510509 0.859872 0
vn 0.170805 0.985305 -0.000600534
vn 0.170075 0.985431 -0.000403229
vn 0.170074 0.985431 -0.000402996
vn -0.170075 0.985431 -0.000403228
vn -0.170805 0.985305 -0.000600532
vn -0.170074 0.985431 -0.000402994
vn 0.168583 0.985687 0
vn -0.168583 0.985687 0
vn 0.00306864 0.915748 -0.401742
vn 0.0516929 0.973991 -0.220611
vn 0 0.910894 -0.412639
vn -0.00306865 0.915748 -0.401742
vn -0.0516928 0.973991 -0.220611
vn -0.877207 0.480112 -4.3828e-07
vn -0.877207 0.480112 -2.46346e-07
vn 0.877209 0.480108 -4.38531e-07
vn 0.877209 0.480109 -4.98893e-07
vn -0.870536 0.492101 -0.0020638
vn -0.870535 0.492101 -0.00206395
vn -0.864736 0.502221 -0.00231893
vn -0.865777 0.500423 -0.00258084
vn 0.870536 0.4921 -0.0020638
vn 0.865778 0.500422 -0.00258085
vn 0.864736 0.502221 -0.00231893
vn 0.870536 0.492101 -0.00206395
vn -0.877203 0.480121 -5.47346e-07
vn -0.877203 0.48012 -5.47346e-07
vn -0.877205 0.480117 -2.20476e-06
vn 0.877205 0.480116 -2.19694e-06
vn 0.877205 0.480116 -2.19694e-06
vn 0.877203 0.48012 -8.19078e-07
vn 0.877203 0.48012 -8.19077e-07
vn -0.877208 0.480111 5.47074e-07
vn -0.877204 0.480118 2.19694e-06
vn -0.877204 0.480118 2.19694e-06
vn 0.877205 0.480116 2.19694e-06
vn 0.877205 0.480116 2.19694e-06
vn 0.877208 0.48011 4.98893e-07
vn -0.877208 0.48011 2.46346e-07
vn 0.877209 0.480109 4.3853e-07
vn -0.870536 0.492101 0.0020638
vn -0.865777 0.500423 0.00258084
vn -0.864736 0.502221 0.00231893
vn -0.870535 0.492101 0.00206395
vn 0.870536 0.4921 0.0020638
vn 0.870536 0.492101 0.00206395
vn 0.864736 0.502221 0.00231893
vn 0.865778 0.500422 0.00258085
vn -0.877202 0.480121 2.71732e-07
vn -0.877202 0.480121 2.71732e-07
vn 0.877203 0.48012 8.19078e-07
vn 0.877203 0.48012 8.19077e-07
vn -4.49348e-07 1 0
vn -6.08422e-06 1 0
vn -1.27477e-05 1 0
vn 4.4254e-07 1 0
vn 6.08422e-06 1 0
vn 1.28394e-05 1 0
vn 0.00222239 0.286385 -0.958112
vn 0.00210079 0.286382 -0.958113
vn 0.021864 0.287927 -0.957403
vn 0.0191458 0.297011 -0.954682
vn 0.0191458 0.297011 0.954682
vn 0.021864 0.287927 0.957403
vn 0.00210079 0.286382 0.958113
vn 0.00222239 0.286385 0.958112
vn -4.52714e-06 0.360018 0.932945
vn -4.52714e-06 0.360018 -0.932945
vn 0 0.286321 -0.958134
vn 0 0.286321 0.958134
vn -0.00222239 0.286385 -0.958112
vn -0.00210079 0.286382 -0.958113
vn -0.00210079 0.286382 0.958113
vn -0.00222239 0.286385 0.958112
vn -0.0191458 0.297011 -0.954682
vn -0.021864 0.287927 -0.957403
vn -0.021864 0.287927 0.957403
vn -0.0191458 0.297011 0.954682
vn 4.66227e-06 0.360019 -0.932945
vn 4.66227e-06 0.360019 0.932945
vn -0.855354 0.518043 0
vn 0.855353 0.518045 0

# Mesh 'low_poly_floor_tile_v1_low_poly_floor_tile_v1_1001' with 176 faces
g low_poly_floor_tile_v1_low_poly_floor_tile_v1_1001
usemtl 1001
f  1/1/1 2/2/1 3/3/1
f  3/3/1 4/4/1 1/1/1
f  5/5/2 6/6/2 7/7/2
f  7/7/2 8/8/2 5/5/2
f  9/9/3 5/5/3 8/8/3
f  8/8/3 10/10/3 9/9/3
f  11/11/4 12/12/4 13/13/5
f  13/13/5 14/14/6 11/11/4
f  5/5/7 9/15/8 15/16/9
f  15/16/9 6/6/7 5/5/7
f  16/17/10 17/18/11 18/19/11
f  18/19/11 19/20/12 16/17/10
f  17/18/2 16/17/2 20/21/2
f  20/21/2 21/22/2 17/18/2
f  22/23/13 23/24/14 24/25/15
f  24/25/15 25/26/13 22/23/13
f  26/27/1 4/4/1 3/3/1
f  3/3/1 27/28/1 26/27/1
f  23/24/2 22/23/2 21/22/2
f  21/22/2 20/21/2 23/24/2
f  11/11/2 8/8/2 7/7/2
f  7/7/2 12/12/2 11/11/2
f  14/29/3 10/10/3 8/8/3
f  8/8/3 11/11/3 14/29/3
f  28/30/16 29/31/17 30/32/18
f  30/32/18 31/33/18 28/30/16
f  29/31/17 28/30/16 32/34/19
f  32/34/19 33/35/20 29/31/17
f  34/36/21 35/37/22 33/35/20
f  33/35/20 32/34/19 34/36/21
f  35/37/22 34/36/21 36/38/23
f  36/38/23 37/39/23 35/37/22
f  38/40/24 39/41/25 40/42/26
f  40/42/26 41/43/25 38/40/24
f  39/41/27 38/40/28 42/44/28
f  42/44/28 43/45/29 39/41/27
f  44/46/28 45/47/30 43/45/29
f  43/45/29 42/44/28 44/46/28
f  45/47/31 44/46/32 46/48/33
f  46/48/33 47/49/34 45/47/31
f  29/31/35 6/6/36 15/16/37
f  15/16/37 30/32/38 29/31/35
f  6/6/39 29/31/17 33/35/20
f  33/35/20 7/7/39 6/6/39
f  35/37/22 12/12/39 7/7/39
f  7/7/39 33/35/20 35/37/22
f  12/12/40 35/37/41 37/39/42
f  37/39/42 13/13/43 12/12/40
f  1/1/44 38/40/44 41/43/45
f  41/43/45 2/50/46 1/1/44
f  38/40/2 1/1/2 4/4/2
f  4/4/2 42/44/2 38/40/2
f  26/27/2 44/46/2 42/44/2
f  42/44/2 4/4/2 26/27/2
f  26/27/47 27/51/48 46/48/49
f  46/48/49 44/46/50 26/27/47
f  48/52/51 49/53/52 50/54/53
f  50/54/53 51/55/51 48/52/51
f  49/53/2 48/52/2 52/56/2
f  52/56/2 53/57/2 49/53/2
f  54/58/2 55/59/2 53/57/2
f  53/57/2 52/56/2 54/58/2
f  55/59/54 54/58/55 56/60/55
f  56/60/55 57/61/56 55/59/54
f  58/62/57 16/17/10 19/20/12
f  19/20/12 59/63/57 58/62/57
f  16/17/2 58/62/2 60/64/2
f  60/64/2 20/21/2 16/17/2
f  61/65/2 23/24/2 20/21/2
f  20/21/2 60/64/2 61/65/2
f  23/24/14 61/65/58 62/66/58
f  62/66/58 24/25/15 23/24/14
f  39/41/27 58/62/59 59/63/60
f  59/63/60 40/42/60 39/41/27
f  58/62/59 39/41/27 43/45/29
f  43/45/29 60/64/61 58/62/59
f  45/47/30 61/65/62 60/64/61
f  60/64/61 43/45/29 45/47/30
f  61/65/62 45/47/30 47/49/63
f  47/49/63 62/66/63 61/65/62
f  49/53/52 28/30/57 31/33/57
f  31/33/57 50/54/53 49/53/52
f  28/30/2 49/53/2 53/57/2
f  53/57/2 32/34/2 28/30/2
f  55/59/2 34/36/2 32/34/2
f  32/34/2 53/57/2 55/59/2
f  34/36/58 55/59/54 57/61/56
f  57/61/56 36/38/58 34/36/58
f  63/67/1 3/3/1 2/2/1
f  2/2/1 64/68/1 63/67/1
f  65/69/3 9/9/3 10/10/3
f  10/10/3 66/70/3 65/69/3
f  67/71/64 15/16/9 9/15/8
f  9/15/8 65/72/65 67/71/64
f  68/73/66 14/14/6 13/13/5
f  13/13/5 69/74/67 68/73/66
f  70/75/68 19/20/69 18/19/70
f  18/19/70 71/76/71 70/75/68
f  72/77/72 73/78/73 25/26/74
f  25/26/74 24/25/75 72/77/72
f  74/79/1 27/28/1 3/3/1
f  3/3/1 63/67/1 74/79/1
f  66/70/3 10/10/3 14/29/3
f  14/29/3 68/80/3 66/70/3
f  75/81/76 31/33/77 30/32/78
f  30/32/78 76/82/78 75/81/76
f  77/83/79 37/39/80 36/38/81
f  36/38/81 78/84/82 77/83/79
f  79/85/83 41/43/45 40/42/84
f  40/42/84 80/86/85 79/85/83
f  81/87/86 47/49/87 46/48/49
f  46/48/49 82/88/88 81/87/86
f  76/82/78 30/32/78 15/16/9
f  15/16/9 67/71/64 76/82/78
f  69/74/67 13/13/5 37/39/80
f  37/39/80 77/83/79 69/74/67
f  64/89/89 2/50/46 41/43/45
f  41/43/45 79/85/83 64/89/89
f  82/88/88 46/48/49 27/51/48
f  27/51/48 74/90/90 82/88/88
f  83/91/91 84/92/92 51/55/93
f  51/55/93 50/54/94 83/91/91
f  85/93/95 57/61/96 56/60/97
f  56/60/97 86/94/98 85/93/95
f  87/95/99 59/63/100 19/20/69
f  19/20/69 70/75/68 87/95/99
f  72/77/72 24/25/75 62/66/101
f  62/66/101 88/96/102 72/77/72
f  80/86/85 40/42/84 59/63/100
f  59/63/100 87/95/99 80/86/85
f  88/96/102 62/66/101 47/49/87
f  47/49/87 81/87/86 88/96/102
f  83/91/91 50/54/94 31/33/77
f  31/33/77 75/81/76 83/91/91
f  78/84/82 36/38/81 57/61/96
f  57/61/96 85/93/95 78/84/82
f  89/97/103 90/98/103 91/99/104
f  91/99/104 92/100/104 89/97/103
f  91/99/104 93/101/105 94/102/105
f  94/102/105 92/100/104 91/99/104
f  95/103/2 96/104/2 90/98/103
f  90/98/103 89/97/103 95/103/2
f  97/105/106 98/106/106 96/104/2
f  96/104/2 95/103/2 97/105/106
f  99/107/107 100/108/107 98/106/106
f  98/106/106 97/105/106 99/107/107
f  99/107/107 101/109/108 102/110/108
f  102/110/108 100/108/107 99/107/107
f  90/98/109 48/52/110 51/55/111
f  51/55/111 91/99/112 90/98/109
f  92/100/113 18/19/114 17/18/115
f  17/18/115 89/97/116 92/100/113
f  51/55/93 84/92/92 71/76/71
f  71/76/71 18/19/70 51/55/93
f  18/19/114 92/100/113 94/102/117
f  51/55/111 93/101/118 91/99/112
f  96/104/119 52/56/119 48/52/110
f  48/52/110 90/98/109 96/104/119
f  89/97/116 17/18/115 21/22/120
f  21/22/120 95/103/120 89/97/116
f  98/106/121 54/58/122 52/56/119
f  52/56/119 96/104/119 98/106/121
f  95/103/120 21/22/120 22/23/123
f  22/23/123 97/105/124 95/103/120
f  100/108/125 56/60/126 54/58/122
f  54/58/122 98/106/121 100/108/125
f  97/105/124 22/23/123 25/26/127
f  25/26/127 99/107/128 97/105/124
f  25/26/74 73/78/73 86/94/98
f  86/94/98 56/60/97 25/26/74
f  56/60/126 100/108/125 102/110/129
f  25/26/127 101/109/130 99/107/128
f  93/101/131 51/55/93 18/19/70
f  18/19/70 94/102/131 93/101/131
f  101/109/132 25/26/74 56/60/97
f  56/60/97 102/110/132 101/109/132

